<svg width="64" height="64" viewBox="0 0 64 64" fill="none" xmlns="http://www.w3.org/2000/svg">
<path d="M61.6 32C62.9255 32 64.0094 33.0762 63.9101 34.3979C63.4344 40.7293 61.0833 46.7965 57.1301 51.811C52.6802 57.4557 46.4595 61.4379 39.4703 63.1158C32.481 64.7938 25.1304 64.0698 18.6029 61.0606C12.0753 58.0513 6.75099 52.9321 3.48779 46.5277C0.224597 40.1233 -0.7874 32.8068 0.61487 25.7571C2.01714 18.7074 5.75201 12.3351 11.2177 7.66701C16.6833 2.99891 23.5614 0.306864 30.7437 0.0246711C37.1241 -0.226019 43.4145 1.43808 48.8163 4.77476C49.944 5.47133 50.1775 6.98075 49.3984 8.05309V8.05309C48.6193 9.12543 47.1232 9.35299 45.9864 8.6714C41.4644 5.96025 36.2349 4.61262 30.9321 4.82097C24.8272 5.06083 18.9808 7.34907 14.335 11.317C9.68921 15.2849 6.51457 20.7013 5.32264 26.6935C4.13071 32.6858 4.99091 38.9048 7.76462 44.3485C10.5383 49.7923 15.064 54.1436 20.6125 56.7015C26.1609 59.2594 32.4089 59.8747 38.3497 58.4485C44.2905 57.0222 49.5782 53.6374 53.3606 48.8394C56.6461 44.6718 58.6297 39.6489 59.0942 34.397C59.211 33.0767 60.2745 32 61.6 32V32Z" fill="#8F9092"/>
</svg>
