<svg width="34" height="34" viewBox="0 0 34 34" fill="none" xmlns="http://www.w3.org/2000/svg">
<path fill-rule="evenodd" clip-rule="evenodd" d="M0 17C0 7.61116 7.61116 0 17 0C26.3888 0 34 7.61116 34 17C34 21.8208 31.9918 26.1746 28.7695 29.267C25.7161 32.1973 21.5674 34 17 34C12.4326 34 8.28386 32.1973 5.23047 29.267C2.0082 26.1746 0 21.8208 0 17ZM26.6198 28.02C25.9382 25.981 24.0117 24.5116 21.7442 24.5116H12.2558C9.9883 24.5116 8.06181 25.981 7.38016 28.02C9.95255 30.2677 13.3163 31.6279 17 31.6279C20.6837 31.6279 24.0475 30.2677 26.6198 28.02ZM17 4.74419C12.8514 4.74419 9.48837 8.10726 9.48837 12.2558C9.48837 16.4044 12.8514 19.7674 17 19.7674C21.1486 19.7674 24.5116 16.4044 24.5116 12.2558C24.5116 8.10726 21.1486 4.74419 17 4.74419Z" fill="#1E1E1E"/>
</svg>
